<?xml version="1.0" encoding="UTF-8"?>
<svg width="26px" height="26px" viewBox="0 0 26 26" version="1.1" xmlns="http://www.w3.org/2000/svg" xmlns:xlink="http://www.w3.org/1999/xlink">
    <!-- Generator: Sketch 46.2 (44496) - http://www.bohemiancoding.com/sketch -->
    <title>emoji</title>
    <desc>Created with Sketch.</desc>
    <defs></defs>
    <g id="Page-1" stroke="none" stroke-width="1" fill="none" fill-rule="evenodd">
        <g id="emoji" transform="translate(1.000000, 1.000000)" fill-rule="nonzero">
            <path d="M12,0 C5.4,0 0,5.4 0,12 C0,18.6 5.4,24 12,24 C18.6,24 24,18.6 24,12 C24,5.4 18.6,0 12,0 Z" id="Shape" stroke="#000000"></path>
            <circle id="Oval" fill="#000000" cx="8.5" cy="9.5" r="1.5"></circle>
            <path d="M17.5,9 L14.5,9 C14.2,9 14,9.2 14,9.5 C14,9.8 14.2,10 14.5,10 L17.5,10 C17.8,10 18,9.8 18,9.5 C18,9.2 17.8,9 17.5,9 Z" id="Shape" fill="#000000"></path>
            <path d="M12,18 L12,19 C15.3,19 18,16.3 18,13 L17,13 C17,15.8 14.8,18 12,18 Z" id="Shape" fill="#000000"></path>
        </g>
    </g>
</svg>
