<?xml version="1.0" encoding="UTF-8"?>
<svg width="54px" height="26px" viewBox="0 0 54 26" version="1.1" xmlns="http://www.w3.org/2000/svg" xmlns:xlink="http://www.w3.org/1999/xlink">
    <!-- Generator: Sketch 46.2 (44496) - http://www.bohemiancoding.com/sketch -->
    <defs></defs>
    <g id="Page-1" stroke="none" stroke-width="1" fill="none" fill-rule="evenodd">
        <g id="Group" transform="translate(1.000000, 1.000000)">
            <g id="emoji" fill="#FFFFFF">
                <path d="M12,0 C5.4,0 0,5.4 0,12 C0,18.6 5.4,24 12,24 C18.6,24 24,18.6 24,12 C24,5.4 18.6,0 12,0 Z" id="Shape" stroke="#000000"></path>
                <circle id="Oval" fill="#000000" fill-rule="nonzero" cx="8.5" cy="9.5" r="1.5"></circle>
                <circle id="Oval" fill="#000000" fill-rule="nonzero" cx="15.5" cy="9.5" r="1.5"></circle>
                <path d="M9,19.2426407 L9,20.2426407 C12.3,20.2426407 15,17.5426407 15,14.2426407 L14,14.2426407 C14,17.0426407 11.8,19.2426407 9,19.2426407 Z" id="Shape" fill="#000000" fill-rule="nonzero" transform="translate(12.000000, 17.242641) rotate(45.000000) translate(-12.000000, -17.242641) "></path>
            </g>
            <g id="emoji" transform="translate(28.000000, 0.000000)">
                <path d="M12,0 C5.4,0 0,5.4 0,12 C0,18.6 5.4,24 12,24 C18.6,24 24,18.6 24,12 C24,5.4 18.6,0 12,0 Z" id="Shape" stroke="#000000" fill="#FFFFFF"></path>
                <circle id="Oval" fill="#000000" fill-rule="nonzero" cx="8.5" cy="9.5" r="1.5"></circle>
                <path d="M17.5,9 L14.5,9 C14.2,9 14,9.2 14,9.5 C14,9.8 14.2,10 14.5,10 L17.5,10 C17.8,10 18,9.8 18,9.5 C18,9.2 17.8,9 17.5,9 Z" id="Shape" fill="#000000" fill-rule="nonzero"></path>
                <path d="M12,18 L12,19 C15.3,19 18,16.3 18,13 L17,13 C17,15.8 14.8,18 12,18 Z" id="Shape" fill="#000000" fill-rule="nonzero"></path>
            </g>
        </g>
    </g>
</svg>
